<svg width="978" height="172" viewBox="0 0 978 172" fill="none" xmlns="http://www.w3.org/2000/svg">
<g filter="url(#filter0_d_2115_3801)">
<path d="M71.18 122L71.18 93.29L44.45 93.29L44.45 122L20.14 122L20.14 46.32L44.45 46.32L44.45 73.93L71.18 73.93L71.18 46.32L95.49 46.32L95.49 122L71.18 122ZM149.391 45C162.444 45 172.528 48.3367 179.641 55.01C186.754 61.6833 190.311 71.4 190.311 84.16C190.311 96.92 186.754 106.637 179.641 113.31C172.528 119.983 162.444 123.32 149.391 123.32C136.338 123.32 126.254 120.02 119.141 113.42C112.101 106.747 108.581 96.9933 108.581 84.16C108.581 71.3267 112.101 61.61 119.141 55.01C126.254 48.3367 136.338 45 149.391 45ZM149.391 63.15C144.184 63.15 140.224 64.7267 137.511 67.88C134.798 71.0333 133.441 75.2867 133.441 80.64L133.441 87.68C133.441 93.0333 134.798 97.2867 137.511 100.44C140.224 103.593 144.184 105.17 149.391 105.17C154.598 105.17 158.558 103.593 161.271 100.44C164.058 97.2867 165.451 93.0333 165.451 87.68L165.451 80.64C165.451 75.2867 164.058 71.0333 161.271 67.88C158.558 64.7267 154.598 63.15 149.391 63.15ZM258.446 122L248.656 75.91L248.216 75.91L238.426 122L211.696 122L193.986 46.32L219.286 46.32L227.976 89.22L228.416 89.22L236.996 46.32L260.976 46.32L270.106 89.22L270.546 89.22L278.686 46.32L302.886 46.32L285.176 122L258.446 122ZM391.766 65.68L391.766 122L367.456 122L367.456 65.68L342.596 65.68L342.596 46.32L416.516 46.32L416.516 65.68L391.766 65.68ZM461.451 45C474.505 45 484.588 48.3367 491.701 55.01C498.815 61.6834 502.371 71.4 502.371 84.16C502.371 96.92 498.815 106.637 491.701 113.31C484.588 119.983 474.505 123.32 461.451 123.32C448.398 123.32 438.315 120.02 431.201 113.42C424.161 106.747 420.641 96.9934 420.641 84.16C420.641 71.3267 424.161 61.61 431.201 55.01C438.315 48.3367 448.398 45 461.451 45ZM461.451 63.15C456.245 63.15 452.285 64.7267 449.571 67.88C446.858 71.0334 445.501 75.2867 445.501 80.64L445.501 87.68C445.501 93.0334 446.858 97.2867 449.571 100.44C452.285 103.593 456.245 105.17 461.451 105.17C466.658 105.17 470.618 103.593 473.331 100.44C476.118 97.2867 477.511 93.0334 477.511 87.68L477.511 80.64C477.511 75.2867 476.118 71.0334 473.331 67.88C470.618 64.7267 466.658 63.15 461.451 63.15ZM594.553 46.32C599.246 46.32 603.426 47.42 607.093 49.62C610.76 51.7467 613.62 54.7167 615.673 58.5301C617.726 62.2701 618.753 66.4867 618.753 71.1801L618.753 72.61C618.753 77.3034 617.726 81.5567 615.673 85.3701C613.62 89.1834 610.76 92.1901 607.093 94.3901C603.426 96.5167 599.246 97.58 594.553 97.58L576.403 97.58L576.403 122L552.093 122L552.093 46.32L594.553 46.32ZM576.403 79.87L586.413 79.87C588.98 79.87 590.886 79.21 592.133 77.89C593.453 76.57 594.113 74.7734 594.113 72.5L594.113 71.62C594.113 69.2734 593.453 67.4767 592.133 66.23C590.886 64.91 588.98 64.25 586.413 64.25L576.403 64.25L576.403 79.87ZM631.478 46.3201L655.788 46.3201L655.788 102.64L694.618 102.64L694.618 122L631.478 122L631.478 46.3201ZM755.557 122L752.367 111.33L725.857 111.33L722.667 122L697.807 122L725.417 46.3201L753.687 46.3201L781.297 122L755.557 122ZM730.917 94.3901L747.307 94.3901L739.387 67.4401L738.947 67.4401L730.917 94.3901ZM828.087 122L803.777 122L803.777 92.6301L773.747 46.3201L801.687 46.3201L816.207 71.5101L816.647 71.5101L831.167 46.3201L857.677 46.3201L828.087 92.6301L828.087 122ZM929.323 45.0001C934.896 45.0001 939.809 45.9167 944.063 47.7501C948.316 49.5834 951.616 52.2234 953.963 55.6701C956.309 59.0434 957.483 62.9667 957.483 67.4401C957.483 70.3001 956.859 72.8667 955.613 75.1401C954.366 77.3401 952.899 79.2101 951.213 80.7501C949.526 82.2901 947.399 83.9767 944.833 85.8101C942.706 87.4234 941.129 88.7067 940.103 89.6601C939.149 90.6134 938.673 91.6034 938.673 92.6301L938.673 94.9401L919.863 94.9401L919.863 89.4401C919.863 87.6801 920.413 86.1034 921.513 84.7101C922.613 83.2434 924.336 81.4101 926.683 79.2101C929.103 77.0834 930.936 75.1767 932.183 73.4901C933.503 71.8034 934.163 69.9334 934.163 67.8801C934.163 65.7534 933.503 63.9567 932.183 62.4901C930.863 60.9501 929.103 60.1801 926.903 60.1801C922.136 60.1801 919.753 63.2601 919.753 69.4201C919.753 70.7401 919.789 71.7301 919.863 72.3901L899.623 72.3901C899.549 71.8767 899.476 71.2901 899.403 70.6301C899.329 69.9701 899.293 69.1634 899.293 68.2101C899.293 63.5167 900.576 59.4467 903.143 56.0001C905.709 52.4801 909.266 49.7667 913.813 47.8601C918.433 45.9534 923.603 45.0001 929.323 45.0001ZM918.543 122L918.543 101.65L940.323 101.65L940.323 122L918.543 122Z" fill="white"/>
<path d="M26.6797 146L24.6152 146L26.7139 135.979L31.1641 135.979C31.9297 135.979 32.5244 136.058 32.9482 136.218C33.3766 136.373 33.7207 136.66 33.9805 137.079C34.2448 137.498 34.377 138.007 34.377 138.604C34.377 139.456 34.1217 140.16 33.6113 140.716C33.1009 141.267 32.3284 141.609 31.2939 141.741C31.5583 141.978 31.8066 142.29 32.0391 142.678C32.4993 143.462 33.012 144.569 33.5771 146L31.3623 146C31.1846 145.435 30.8359 144.553 30.3164 143.354C30.0339 142.707 29.7331 142.272 29.4141 142.049C29.2181 141.917 28.8763 141.851 28.3887 141.851L27.5479 141.851L26.6797 146ZM27.8623 140.347L28.9561 140.347C30.0635 140.347 30.7972 140.281 31.1572 140.148C31.5218 140.016 31.8066 139.809 32.0117 139.526C32.2168 139.244 32.3193 138.948 32.3193 138.638C32.3193 138.273 32.1712 138 31.875 137.817C31.6927 137.708 31.2985 137.653 30.6924 137.653L28.4229 137.653L27.8623 140.347ZM57.7408 142.069C57.7408 141.477 57.8297 140.853 58.0074 140.196C58.2398 139.317 58.593 138.553 59.067 137.906C59.5455 137.259 60.1471 136.749 60.8717 136.375C61.5963 135.997 62.4212 135.808 63.3463 135.808C64.5859 135.808 65.5862 136.193 66.3473 136.963C67.1129 137.733 67.4957 138.754 67.4957 140.025C67.4957 141.083 67.2473 142.106 66.7506 143.095C66.2538 144.084 65.5794 144.845 64.7271 145.378C63.8749 145.911 62.9111 146.178 61.8355 146.178C60.9013 146.178 60.1174 145.966 59.484 145.542C58.8505 145.118 58.4016 144.594 58.1373 143.97C57.873 143.341 57.7408 142.707 57.7408 142.069ZM59.7779 142.028C59.7779 142.716 59.9876 143.293 60.4068 143.758C60.8261 144.223 61.3775 144.455 62.0611 144.455C62.6171 144.455 63.1503 144.273 63.6607 143.908C64.1757 143.539 64.5995 142.983 64.9322 142.24C65.2695 141.493 65.4381 140.766 65.4381 140.06C65.4381 139.271 65.2262 138.654 64.8023 138.207C64.3785 137.756 63.8385 137.53 63.1822 137.53C62.1751 137.53 61.3548 138 60.7213 138.938C60.0924 139.877 59.7779 140.907 59.7779 142.028ZM96.9504 143.785L92.9787 143.785L91.7756 146L89.6564 146L95.3234 135.979L97.6135 135.979L99.2404 146L97.2854 146L96.9504 143.785ZM96.6975 142.117L96.1164 138.084L93.6965 142.117L96.6975 142.117ZM128.668 146L126.713 146L126.35 137.626L124.758 146L122.898 146L124.99 135.979L127.929 135.979L128.237 142.999L131.655 135.979L134.629 135.979L132.53 146L130.65 146L132.626 137.688L128.668 146ZM158.635 146L155.969 146L160.392 140.928L157.904 135.979L160.057 135.979L161.035 137.858C161.066 137.927 161.29 138.389 161.704 139.246C161.732 139.292 161.761 139.353 161.793 139.431C162.349 138.752 162.816 138.196 163.195 137.763L164.774 135.979L167.365 135.979L162.778 141.256L165.246 146L162.921 146L162.169 144.489C161.777 143.692 161.518 143.12 161.39 142.773C161.212 143.042 160.754 143.598 160.016 144.441L158.635 146Z" fill="white"/>
<path d="M222.68 146.001L220.615 146.001L222.714 135.979L227.164 135.979C227.93 135.979 228.524 136.059 228.948 136.219C229.377 136.374 229.721 136.661 229.98 137.08C230.245 137.499 230.377 138.007 230.377 138.604C230.377 139.457 230.122 140.161 229.611 140.717C229.101 141.268 228.328 141.61 227.294 141.742C227.558 141.979 227.807 142.291 228.039 142.679C228.499 143.463 229.012 144.57 229.577 146.001L227.362 146.001C227.185 145.436 226.836 144.554 226.316 143.355C226.034 142.708 225.733 142.273 225.414 142.05C225.218 141.918 224.876 141.852 224.389 141.852L223.548 141.852L222.68 146.001ZM223.862 140.348L224.956 140.348C226.063 140.348 226.797 140.282 227.157 140.149C227.522 140.017 227.807 139.81 228.012 139.527C228.217 139.245 228.319 138.949 228.319 138.639C228.319 138.274 228.171 138.001 227.875 137.818C227.693 137.709 227.299 137.654 226.692 137.654L224.423 137.654L223.862 140.348ZM253.741 142.07C253.741 141.478 253.83 140.854 254.007 140.197C254.24 139.318 254.593 138.554 255.067 137.907C255.546 137.26 256.147 136.75 256.872 136.376C257.596 135.998 258.421 135.809 259.346 135.809C260.586 135.809 261.586 136.194 262.347 136.964C263.113 137.734 263.496 138.755 263.496 140.026C263.496 141.084 263.247 142.107 262.751 143.096C262.254 144.085 261.579 144.846 260.727 145.379C259.875 145.912 258.911 146.179 257.836 146.179C256.901 146.179 256.117 145.967 255.484 145.543C254.851 145.119 254.402 144.595 254.137 143.971C253.873 143.342 253.741 142.708 253.741 142.07ZM255.778 142.029C255.778 142.717 255.988 143.294 256.407 143.759C256.826 144.224 257.378 144.456 258.061 144.456C258.617 144.456 259.15 144.274 259.661 143.909C260.176 143.54 260.6 142.984 260.932 142.241C261.269 141.494 261.438 140.767 261.438 140.061C261.438 139.272 261.226 138.655 260.802 138.208C260.379 137.757 259.838 137.531 259.182 137.531C258.175 137.531 257.355 138.001 256.721 138.939C256.092 139.878 255.778 140.908 255.778 142.029ZM292.95 143.786L288.979 143.786L287.776 146.001L285.656 146.001L291.323 135.979L293.613 135.979L295.24 146.001L293.285 146.001L292.95 143.786ZM292.697 142.118L292.116 138.085L289.696 142.118L292.697 142.118ZM324.668 146.001L322.713 146.001L322.35 137.627L320.758 146.001L318.898 146.001L320.99 135.98L323.929 135.98L324.237 143L327.655 135.98L330.629 135.98L328.53 146.001L326.65 146.001L328.626 137.688L324.668 146.001ZM354.635 146.001L351.969 146.001L356.392 140.929L353.904 135.98L356.057 135.98L357.035 137.859C357.066 137.928 357.29 138.39 357.704 139.247C357.732 139.293 357.761 139.354 357.793 139.432C358.349 138.753 358.816 138.197 359.195 137.764L360.774 135.98L363.365 135.98L358.778 141.257L361.246 146.001L358.921 146.001L358.169 144.49C357.777 143.693 357.518 143.121 357.39 142.774C357.212 143.043 356.754 143.599 356.016 144.442L354.635 146.001Z" fill="white"/>
<path d="M418.68 146.001L416.615 146.001L418.714 135.979L423.164 135.979C423.93 135.979 424.524 136.059 424.948 136.219C425.377 136.374 425.721 136.661 425.98 137.08C426.245 137.499 426.377 138.007 426.377 138.604C426.377 139.457 426.122 140.161 425.611 140.717C425.101 141.268 424.328 141.61 423.294 141.742C423.558 141.979 423.807 142.291 424.039 142.679C424.499 143.463 425.012 144.57 425.577 146.001L423.362 146.001C423.185 145.436 422.836 144.554 422.316 143.355C422.034 142.708 421.733 142.273 421.414 142.05C421.218 141.918 420.876 141.852 420.389 141.852L419.548 141.852L418.68 146.001ZM419.862 140.348L420.956 140.348C422.063 140.348 422.797 140.282 423.157 140.149C423.522 140.017 423.807 139.81 424.012 139.527C424.217 139.245 424.319 138.949 424.319 138.639C424.319 138.274 424.171 138.001 423.875 137.818C423.693 137.709 423.299 137.654 422.692 137.654L420.423 137.654L419.862 140.348ZM449.741 142.07C449.741 141.478 449.83 140.854 450.007 140.197C450.24 139.318 450.593 138.554 451.067 137.907C451.546 137.26 452.147 136.75 452.872 136.376C453.596 135.998 454.421 135.809 455.346 135.809C456.586 135.809 457.586 136.194 458.347 136.964C459.113 137.734 459.496 138.755 459.496 140.026C459.496 141.084 459.247 142.107 458.751 143.096C458.254 144.085 457.579 144.846 456.727 145.379C455.875 145.912 454.911 146.179 453.836 146.179C452.901 146.179 452.117 145.967 451.484 145.543C450.851 145.119 450.402 144.595 450.137 143.971C449.873 143.342 449.741 142.708 449.741 142.07ZM451.778 142.029C451.778 142.717 451.988 143.294 452.407 143.759C452.826 144.224 453.378 144.456 454.061 144.456C454.617 144.456 455.15 144.274 455.661 143.909C456.176 143.54 456.6 142.984 456.932 142.241C457.269 141.494 457.438 140.767 457.438 140.061C457.438 139.272 457.226 138.655 456.802 138.208C456.379 137.757 455.838 137.531 455.182 137.531C454.175 137.531 453.355 138.001 452.721 138.939C452.092 139.878 451.778 140.908 451.778 142.029ZM488.95 143.786L484.979 143.786L483.776 146.001L481.656 146.001L487.323 135.979L489.613 135.979L491.24 146.001L489.285 146.001L488.95 143.786ZM488.697 142.118L488.116 138.085L485.696 142.118L488.697 142.118ZM520.668 146.001L518.713 146.001L518.35 137.627L516.758 146.001L514.898 146.001L516.99 135.98L519.929 135.98L520.237 143L523.655 135.98L526.629 135.98L524.53 146.001L522.65 146.001L524.626 137.688L520.668 146.001ZM550.635 146.001L547.969 146.001L552.392 140.929L549.904 135.98L552.057 135.98L553.035 137.859C553.066 137.928 553.29 138.39 553.704 139.247C553.732 139.293 553.761 139.354 553.793 139.432C554.349 138.753 554.816 138.197 555.195 137.764L556.774 135.98L559.365 135.98L554.778 141.257L557.246 146.001L554.921 146.001L554.169 144.49C553.777 143.693 553.518 143.121 553.39 142.774C553.212 143.043 552.754 143.599 552.016 144.442L550.635 146.001Z" fill="white"/>
<path d="M614.68 146.001L612.615 146.001L614.714 135.979L619.164 135.979C619.93 135.979 620.524 136.059 620.948 136.219C621.377 136.374 621.721 136.661 621.98 137.08C622.245 137.499 622.377 138.007 622.377 138.604C622.377 139.457 622.122 140.161 621.611 140.717C621.101 141.268 620.328 141.61 619.294 141.742C619.558 141.979 619.807 142.291 620.039 142.679C620.499 143.463 621.012 144.57 621.577 146.001L619.362 146.001C619.185 145.436 618.836 144.554 618.316 143.355C618.034 142.708 617.733 142.273 617.414 142.05C617.218 141.918 616.876 141.852 616.389 141.852L615.548 141.852L614.68 146.001ZM615.862 140.348L616.956 140.348C618.063 140.348 618.797 140.282 619.157 140.149C619.522 140.017 619.807 139.81 620.012 139.527C620.217 139.245 620.319 138.949 620.319 138.639C620.319 138.274 620.171 138.001 619.875 137.818C619.693 137.709 619.299 137.654 618.692 137.654L616.423 137.654L615.862 140.348ZM645.741 142.07C645.741 141.478 645.83 140.854 646.007 140.197C646.24 139.318 646.593 138.554 647.067 137.907C647.546 137.26 648.147 136.75 648.872 136.376C649.596 135.998 650.421 135.809 651.346 135.809C652.586 135.809 653.586 136.194 654.347 136.964C655.113 137.734 655.496 138.755 655.496 140.026C655.496 141.084 655.247 142.107 654.751 143.096C654.254 144.085 653.579 144.846 652.727 145.379C651.875 145.912 650.911 146.179 649.836 146.179C648.901 146.179 648.117 145.967 647.484 145.543C646.851 145.119 646.402 144.595 646.137 143.971C645.873 143.342 645.741 142.708 645.741 142.07ZM647.778 142.029C647.778 142.717 647.988 143.294 648.407 143.759C648.826 144.224 649.378 144.456 650.061 144.456C650.617 144.456 651.15 144.274 651.661 143.909C652.176 143.54 652.6 142.984 652.932 142.241C653.269 141.494 653.438 140.767 653.438 140.061C653.438 139.272 653.226 138.655 652.802 138.208C652.379 137.757 651.838 137.531 651.182 137.531C650.175 137.531 649.355 138.001 648.721 138.939C648.092 139.878 647.778 140.908 647.778 142.029ZM684.95 143.786L680.979 143.786L679.776 146.001L677.656 146.001L683.323 135.979L685.613 135.979L687.24 146.001L685.285 146.001L684.95 143.786ZM684.697 142.118L684.116 138.085L681.696 142.118L684.697 142.118ZM716.668 146.001L714.713 146.001L714.35 137.627L712.758 146.001L710.898 146.001L712.99 135.98L715.929 135.98L716.237 143L719.655 135.98L722.629 135.98L720.53 146.001L718.65 146.001L720.626 137.688L716.668 146.001ZM746.635 146.001L743.969 146.001L748.392 140.929L745.904 135.98L748.057 135.98L749.035 137.859C749.066 137.928 749.29 138.39 749.704 139.247C749.732 139.293 749.761 139.354 749.793 139.432C750.349 138.753 750.816 138.197 751.195 137.764L752.774 135.98L755.365 135.98L750.778 141.257L753.246 146.001L750.921 146.001L750.169 144.49C749.777 143.693 749.518 143.121 749.39 142.774C749.212 143.043 748.754 143.599 748.016 144.442L746.635 146.001Z" fill="white"/>
<path d="M810.68 146.001L808.615 146.001L810.714 135.979L815.164 135.979C815.93 135.979 816.524 136.059 816.948 136.219C817.377 136.374 817.721 136.661 817.98 137.08C818.245 137.499 818.377 138.007 818.377 138.604C818.377 139.457 818.122 140.161 817.611 140.717C817.101 141.268 816.328 141.61 815.294 141.742C815.558 141.979 815.807 142.291 816.039 142.679C816.499 143.463 817.012 144.57 817.577 146.001L815.362 146.001C815.185 145.436 814.836 144.554 814.316 143.355C814.034 142.708 813.733 142.273 813.414 142.05C813.218 141.918 812.876 141.852 812.389 141.852L811.548 141.852L810.68 146.001ZM811.862 140.348L812.956 140.348C814.063 140.348 814.797 140.282 815.157 140.149C815.522 140.017 815.807 139.81 816.012 139.527C816.217 139.245 816.319 138.949 816.319 138.639C816.319 138.274 816.171 138.001 815.875 137.818C815.693 137.709 815.299 137.654 814.692 137.654L812.423 137.654L811.862 140.348ZM841.741 142.07C841.741 141.478 841.83 140.854 842.007 140.197C842.24 139.318 842.593 138.554 843.067 137.907C843.546 137.26 844.147 136.75 844.872 136.376C845.596 135.998 846.421 135.809 847.346 135.809C848.586 135.809 849.586 136.194 850.347 136.964C851.113 137.734 851.496 138.755 851.496 140.026C851.496 141.084 851.247 142.107 850.751 143.096C850.254 144.085 849.579 144.846 848.727 145.379C847.875 145.912 846.911 146.179 845.836 146.179C844.901 146.179 844.117 145.967 843.484 145.543C842.851 145.119 842.402 144.595 842.137 143.971C841.873 143.342 841.741 142.708 841.741 142.07ZM843.778 142.029C843.778 142.717 843.988 143.294 844.407 143.759C844.826 144.224 845.378 144.456 846.061 144.456C846.617 144.456 847.15 144.274 847.661 143.909C848.176 143.54 848.6 142.984 848.932 142.241C849.269 141.494 849.438 140.767 849.438 140.061C849.438 139.272 849.226 138.655 848.802 138.208C848.379 137.757 847.838 137.531 847.182 137.531C846.175 137.531 845.355 138.001 844.721 138.939C844.092 139.878 843.778 140.908 843.778 142.029ZM880.95 143.786L876.979 143.786L875.776 146.001L873.656 146.001L879.323 135.979L881.613 135.979L883.24 146.001L881.285 146.001L880.95 143.786ZM880.697 142.118L880.116 138.085L877.696 142.118L880.697 142.118ZM912.668 146.001L910.713 146.001L910.35 137.627L908.758 146.001L906.898 146.001L908.99 135.98L911.929 135.98L912.237 143L915.655 135.98L918.629 135.98L916.53 146.001L914.65 146.001L916.626 137.688L912.668 146.001ZM942.635 146.001L939.969 146.001L944.392 140.929L941.904 135.98L944.057 135.98L945.035 137.859C945.066 137.928 945.29 138.39 945.704 139.247C945.732 139.293 945.761 139.354 945.793 139.432C946.349 138.753 946.816 138.197 947.195 137.764L948.774 135.98L951.365 135.98L946.778 141.257L949.246 146.001L946.921 146.001L946.169 144.49C945.777 143.693 945.518 143.121 945.39 142.774C945.212 143.043 944.754 143.599 944.016 144.442L942.635 146.001Z" fill="white"/>
</g>
<defs>
<filter id="filter0_d_2115_3801" x="0.140137" y="25" width="977.342" height="141.179" filterUnits="userSpaceOnUse" color-interpolation-filters="sRGB">
<feFlood flood-opacity="0" result="BackgroundImageFix"/>
<feColorMatrix in="SourceAlpha" type="matrix" values="0 0 0 0 0 0 0 0 0 0 0 0 0 0 0 0 0 0 127 0" result="hardAlpha"/>
<feOffset/>
<feGaussianBlur stdDeviation="10"/>
<feComposite in2="hardAlpha" operator="out"/>
<feColorMatrix type="matrix" values="0 0 0 0 0 0 0 0 0 0 0 0 0 0 0 0 0 0 0.5 0"/>
<feBlend mode="normal" in2="BackgroundImageFix" result="effect1_dropShadow_2115_3801"/>
<feBlend mode="normal" in="SourceGraphic" in2="effect1_dropShadow_2115_3801" result="shape"/>
</filter>
</defs>
</svg>
