<svg width="445" height="174" viewBox="0 0 445 174" fill="none" xmlns="http://www.w3.org/2000/svg">
<path d="M442.973 174C444.078 174.015 444.985 173.131 445 172.027C445.015 170.922 444.131 170.015 443.027 170L442.973 174ZM207.616 132.116L208.21 130.206L207.616 132.116ZM0 0L5.03656 22.5381L22.0369 6.90727L0 0ZM2.02604 5.1583C2.78245 5.96323 4.04817 6.00257 4.8531 5.24616C5.65803 4.48975 5.69737 3.22403 4.94096 2.4191L2.02604 5.1583ZM12.1156 9.78344C11.3321 9.00488 10.0658 9.00889 9.28719 9.79242C8.50862 10.5759 8.51264 11.8423 9.29616 12.6208L12.1156 9.78344ZM16.7874 19.8617C17.5915 20.619 18.8572 20.581 19.6145 19.7769C20.3718 18.9728 20.3338 17.707 19.5297 16.9498L16.7874 19.8617ZM27.139 23.9487C26.3176 23.2101 25.0531 23.2773 24.3146 24.0987C23.5761 24.9201 23.6432 26.1847 24.4646 26.9232L27.139 23.9487ZM32.2523 33.7776C33.089 34.4988 34.3518 34.4053 35.073 33.5686C35.7942 32.732 35.7007 31.4692 34.864 30.748L32.2523 33.7776ZM42.7577 37.4172C41.907 36.7126 40.6462 36.831 39.9416 37.6817C39.237 38.5323 39.3554 39.7931 40.2061 40.4977L42.7577 37.4172ZM48.2648 47.0449C49.1286 47.7334 50.3869 47.5912 51.0754 46.7274C51.7638 45.8636 51.6216 44.6053 50.7578 43.9169L48.2648 47.0449ZM58.906 50.2882C58.0297 49.6159 56.7742 49.7813 56.1018 50.6577C55.4295 51.534 55.5949 52.7895 56.4713 53.4619L58.906 50.2882ZM64.7642 59.7048C65.6527 60.3611 66.9049 60.1728 67.5612 59.2844C68.2175 58.3959 68.0292 57.1436 67.1408 56.4874L64.7642 59.7048ZM75.4962 62.5424C74.5959 61.9024 73.3473 62.1134 72.7073 63.0136C72.0673 63.9139 72.2783 65.1625 73.1785 65.8025L75.4962 62.5424ZM81.7126 71.7526C82.6244 72.376 83.869 72.1422 84.4924 71.2304C85.1158 70.3186 84.882 69.074 83.9701 68.4506L81.7126 71.7526ZM92.5519 74.2022C91.6287 73.5958 90.3887 73.8526 89.7823 74.7758C89.1759 75.699 89.4327 76.939 90.3559 77.5455L92.5519 74.2022ZM99.09 83.166C100.024 83.7549 101.259 83.4749 101.848 82.5404C102.437 81.6059 102.157 80.371 101.223 79.782L99.09 83.166ZM110.003 85.1993C109.057 84.6283 107.828 84.932 107.257 85.8776C106.686 86.8232 106.99 88.0526 107.935 88.6235L110.003 85.1993ZM116.889 93.9108C117.845 94.4631 119.068 94.1353 119.621 93.1786C120.173 92.222 119.845 90.9989 118.888 90.4466L116.889 93.9108ZM127.878 95.5166C126.91 94.9837 125.694 95.3362 125.161 96.3037C124.628 97.2713 124.981 98.4876 125.948 99.0204L127.878 95.5166ZM135.113 103.944C136.091 104.457 137.3 104.08 137.812 103.101C138.325 102.123 137.947 100.914 136.969 100.401L135.113 103.944ZM146.16 105.093C145.171 104.601 143.971 105.005 143.479 105.994C142.988 106.983 143.391 108.183 144.38 108.675L146.16 105.093ZM153.747 113.201C154.746 113.671 155.938 113.241 156.407 112.241C156.876 111.241 156.447 110.05 155.447 109.58L153.747 113.201ZM164.828 113.856C163.818 113.409 162.637 113.867 162.191 114.877C161.744 115.887 162.201 117.068 163.212 117.515L164.828 113.856ZM172.778 121.607C173.798 122.029 174.968 121.544 175.39 120.524C175.812 119.503 175.327 118.333 174.307 117.911L172.778 121.607ZM183.88 121.734C182.849 121.338 181.691 121.851 181.294 122.882C180.898 123.913 181.411 125.07 182.442 125.467L183.88 121.734ZM192.203 129.084C193.244 129.454 194.388 128.911 194.758 127.87C195.128 126.829 194.585 125.686 193.544 125.315L192.203 129.084ZM203.298 128.641C202.247 128.299 201.118 128.873 200.776 129.923C200.434 130.973 201.007 132.102 202.057 132.444L203.298 128.641ZM211.807 135.496C212.864 135.817 213.981 135.221 214.302 134.164C214.623 133.107 214.027 131.99 212.97 131.669L211.807 135.496ZM222.51 134.501C221.449 134.193 220.339 134.804 220.032 135.865C219.724 136.925 220.335 138.035 221.396 138.342L222.51 134.501ZM231.018 141.068C232.083 141.363 233.184 140.738 233.479 139.674C233.773 138.609 233.149 137.507 232.085 137.213L231.018 141.068ZM241.692 139.809C240.624 139.528 239.53 140.165 239.248 141.233C238.966 142.301 239.604 143.395 240.672 143.677L241.692 139.809ZM250.354 146.172C251.425 146.442 252.512 145.792 252.782 144.721C253.051 143.65 252.401 142.563 251.33 142.293L250.354 146.172ZM260.996 144.668C259.922 144.41 258.842 145.072 258.585 146.146C258.327 147.22 258.989 148.3 260.063 148.557L260.996 144.668ZM269.797 150.835C270.873 151.08 271.946 150.407 272.191 149.33C272.437 148.253 271.763 147.181 270.687 146.935L269.797 150.835ZM280.4 149.097C279.321 148.863 278.256 149.548 278.022 150.628C277.787 151.707 278.472 152.772 279.552 153.006L280.4 149.097ZM289.327 155.075C290.409 155.298 291.467 154.602 291.69 153.52C291.913 152.438 291.217 151.38 290.135 151.157L289.327 155.075ZM299.902 153.119C298.818 152.907 297.767 153.614 297.555 154.698C297.343 155.782 298.05 156.833 299.134 157.045L299.902 153.119ZM308.96 158.915C310.046 159.116 311.09 158.398 311.291 157.312C311.492 156.226 310.774 155.183 309.688 154.982L308.96 158.915ZM319.491 156.746C318.403 156.556 317.367 157.284 317.177 158.372C316.986 159.46 317.714 160.496 318.802 160.686L319.491 156.746ZM328.657 162.36C329.747 162.539 330.776 161.801 330.956 160.712C331.135 159.622 330.397 158.593 329.308 158.413L328.657 162.36ZM339.133 159.983C338.041 159.814 337.02 160.562 336.851 161.653C336.682 162.745 337.43 163.767 338.521 163.936L339.133 159.983ZM348.396 165.414C349.489 165.573 350.504 164.815 350.662 163.721C350.82 162.628 350.062 161.614 348.969 161.456L348.396 165.414ZM358.847 162.836C357.753 162.688 356.746 163.456 356.598 164.551C356.451 165.646 357.219 166.653 358.313 166.8L358.847 162.836ZM368.228 168.085C369.324 168.222 370.323 167.444 370.46 166.348C370.596 165.252 369.818 164.252 368.722 164.116L368.228 168.085ZM378.586 165.293C377.488 165.168 376.497 165.956 376.372 167.054C376.246 168.151 377.034 169.142 378.132 169.268L378.586 165.293ZM388.098 170.352C389.196 170.466 390.179 169.667 390.293 168.568C390.406 167.47 389.608 166.487 388.509 166.373L388.098 170.352ZM398.384 167.339C397.284 167.238 396.31 168.047 396.209 169.147C396.108 170.247 396.917 171.221 398.017 171.322L398.384 167.339ZM408.012 172.183C409.113 172.271 410.077 171.45 410.165 170.348C410.253 169.247 409.432 168.284 408.331 168.196L408.012 172.183ZM418.257 168.922C417.154 168.849 416.202 169.683 416.129 170.786C416.056 171.888 416.89 172.84 417.992 172.913L418.257 168.922ZM427.985 173.496C429.088 173.551 430.027 172.702 430.082 171.598C430.137 170.495 429.288 169.556 428.184 169.501L427.985 173.496ZM438.108 169.896C437.004 169.865 436.084 170.734 436.052 171.838C436.021 172.943 436.891 173.863 437.995 173.894L438.108 169.896ZM9.29616 12.6208C11.6224 14.9324 14.122 17.3515 16.7874 19.8617L19.5297 16.9498C16.8894 14.4631 14.4156 12.0689 12.1156 9.78344L9.29616 12.6208ZM24.4646 26.9232C26.9496 29.1574 29.5469 31.4454 32.2523 33.7776L34.864 30.748C32.1796 28.4339 29.6032 26.1642 27.139 23.9487L24.4646 26.9232ZM40.2061 40.4977C42.8098 42.6543 45.4971 44.8391 48.2648 47.0449L50.7578 43.9169C48.0099 41.7268 45.3421 39.5579 42.7577 37.4172L40.2061 40.4977ZM56.4713 53.4619C59.1701 55.5324 61.9352 57.6152 64.7642 59.7048L67.1408 56.4874C64.3316 54.4124 61.5859 52.3442 58.906 50.2882L56.4713 53.4619ZM73.1785 65.8025C75.9689 67.7862 78.8143 69.7711 81.7126 71.7526L83.9701 68.4506C81.0923 66.4831 78.267 64.5121 75.4962 62.5424L73.1785 65.8025ZM90.3559 77.5455C93.2214 79.4276 96.1333 81.3025 99.09 83.166L101.223 79.782C98.2877 77.9321 95.3968 76.0708 92.5519 74.2022L90.3559 77.5455ZM107.935 88.6235C110.88 90.4016 113.865 92.1652 116.889 93.9108L118.888 90.4466C115.888 88.7144 112.926 86.9641 110.003 85.1993L107.935 88.6235ZM125.948 99.0204C128.968 100.684 132.024 102.326 135.113 103.944L136.969 100.401C133.905 98.7961 130.874 97.1667 127.878 95.5166L125.948 99.0204ZM144.38 108.675C147.472 110.211 150.594 111.721 153.747 113.201L155.447 109.58C152.322 108.113 149.226 106.616 146.16 105.093L144.38 108.675ZM163.212 117.515C166.373 118.912 169.563 120.277 172.778 121.607L174.307 117.911C171.122 116.593 167.962 115.24 164.828 113.856L163.212 117.515ZM182.442 125.467C185.672 126.711 188.926 127.918 192.203 129.084L193.544 125.315C190.3 124.161 187.078 122.966 183.88 121.734L182.442 125.467ZM202.057 132.444C203.707 132.982 205.362 133.51 207.022 134.026L208.21 130.206C206.568 129.695 204.93 129.174 203.298 128.641L202.057 132.444ZM207.022 134.026C208.617 134.522 210.212 135.012 211.807 135.496L212.97 131.669C211.383 131.187 209.797 130.699 208.21 130.206L207.022 134.026ZM221.396 138.342C224.607 139.273 227.815 140.182 231.018 141.068L232.085 137.213C228.897 136.331 225.704 135.427 222.51 134.501L221.396 138.342ZM240.672 143.677C243.907 144.531 247.135 145.363 250.354 146.172L251.33 142.293C248.126 141.487 244.913 140.659 241.692 139.809L240.672 143.677ZM260.063 148.557C263.321 149.338 266.566 150.097 269.797 150.835L270.687 146.935C267.47 146.201 264.239 145.445 260.996 144.668L260.063 148.557ZM279.552 153.006C282.829 153.718 286.088 154.407 289.327 155.075L290.135 151.157C286.909 150.492 283.664 149.806 280.4 149.097L279.552 153.006ZM299.134 157.045C302.435 157.69 305.711 158.313 308.96 158.915L309.688 154.982C306.452 154.382 303.189 153.762 299.902 153.119L299.134 157.045ZM318.802 160.686C322.121 161.267 325.407 161.824 328.657 162.36L329.308 158.413C326.07 157.88 322.797 157.324 319.491 156.746L318.802 160.686ZM338.521 163.936C341.857 164.452 345.15 164.944 348.396 165.414L348.969 161.456C345.735 160.988 342.455 160.497 339.133 159.983L338.521 163.936ZM358.313 166.8C361.677 167.253 364.983 167.681 368.228 168.085L368.722 164.116C365.491 163.714 362.198 163.287 358.847 162.836L358.313 166.8ZM378.132 169.268C381.535 169.656 384.859 170.017 388.098 170.352L388.509 166.373C385.284 166.04 381.975 165.68 378.586 165.293L378.132 169.268ZM398.017 171.322C401.468 171.64 404.803 171.926 408.012 172.183L408.331 168.196C405.137 167.941 401.819 167.656 398.384 167.339L398.017 171.322ZM417.992 172.913C421.522 173.147 424.858 173.34 427.985 173.496L428.184 169.501C425.08 169.346 421.766 169.154 418.257 168.922L417.992 172.913ZM437.995 173.894C439.757 173.944 441.418 173.979 442.973 174L443.027 170C441.493 169.98 439.852 169.945 438.108 169.896L437.995 173.894Z" fill="#80B0F7"/>
</svg>
